<svg width="318" height="240" viewBox="0 0 318 240" fill="none" xmlns="http://www.w3.org/2000/svg">
<path opacity="0.3" d="M232.657 52.9941C259.361 62.0137 279.649 86.1986 284.332 116.004C288.307 141.12 279.967 171.729 235.415 185.064C189.941 198.684 73.8635 213.396 41.1254 161.977C16.0034 122.468 24.8756 68.9316 73.4262 51.5373C107.46 39.2857 180.521 35.3769 232.657 52.9941Z" fill="#E6E6E6"/>
<path d="M244.86 96.7864L183.16 116.545C181.504 111.691 178.374 107.477 174.207 104.493C170.04 101.509 165.045 99.9058 159.922 99.907V35.0585C178.773 35.0578 197.141 41.0284 212.398 52.1159C227.654 63.2034 239.017 78.8395 244.86 96.7864Z" fill="#FFBD14"/>
<path opacity="0.08" d="M244.86 96.7864L183.16 116.545C181.504 111.691 178.374 107.477 174.207 104.493C170.04 101.509 165.045 99.9058 159.922 99.907V35.0585C178.773 35.0578 197.141 41.0284 212.398 52.1159C227.654 63.2034 239.017 78.8395 244.86 96.7864Z" fill="black"/>
<path d="M225.661 124.498C225.669 134.952 223.186 145.257 218.421 154.558C213.655 163.859 206.742 171.888 198.257 177.978L174.487 144.264C178.471 141.332 181.478 137.262 183.112 132.588C184.747 127.914 184.932 122.855 183.645 118.073L223.395 107.263C224.909 112.882 225.671 118.678 225.661 124.498Z" fill="white"/>
<path d="M203.361 192.172C190.034 200.757 174.468 205.201 158.623 204.945C142.779 204.688 127.364 199.743 114.321 190.732L147.075 145.395C150.986 147.811 155.497 149.077 160.092 149.049C164.687 149.02 169.182 147.699 173.064 145.236L203.361 192.172Z" fill="#FFBD14"/>
<path opacity="0.46" d="M203.361 192.172C190.034 200.757 174.468 205.201 158.623 204.945C142.779 204.688 127.364 199.743 114.321 190.732L147.075 145.395C150.986 147.811 155.497 149.077 160.092 149.049C164.687 149.02 169.182 147.699 173.064 145.236L203.361 192.172Z" fill="white"/>
<path d="M145.103 144.042L98.8821 204.942C98.8821 204.942 70.5403 184.291 62.9322 150.012C55.324 115.733 64.3473 95.0828 64.3473 95.0828L136.486 117.301C135.018 122.108 135.057 127.251 136.598 132.035C138.139 136.819 141.107 141.015 145.103 144.058V144.042Z" fill="#FFBD14"/>
<path d="M158.078 100.018C153.497 100.365 149.106 101.993 145.404 104.717C141.702 107.44 138.838 111.149 137.138 115.423C137.138 115.423 116.579 108.783 108.915 106.148C112.58 95.9349 119.219 87.0565 127.974 80.6594C136.729 74.2623 147.199 70.6402 158.03 70.261L158.078 100.018Z" fill="white"/>
<path d="M159.938 143.333C156.232 143.333 152.609 142.233 149.528 140.171C146.446 138.109 144.045 135.179 142.626 131.75C141.208 128.321 140.837 124.549 141.56 120.909C142.283 117.269 144.068 113.926 146.688 111.302C149.309 108.677 152.648 106.89 156.282 106.166C159.917 105.442 163.685 105.814 167.109 107.234C170.533 108.654 173.459 111.059 175.518 114.145C177.577 117.231 178.676 120.858 178.676 124.569C178.67 129.544 176.694 134.313 173.181 137.83C169.668 141.348 164.906 143.327 159.938 143.333ZM159.938 110.853C157.229 110.851 154.579 111.655 152.326 113.161C150.072 114.667 148.315 116.809 147.277 119.315C146.239 121.821 145.967 124.579 146.495 127.241C147.022 129.902 148.326 132.347 150.242 134.266C152.157 136.185 154.598 137.492 157.255 138.022C159.912 138.552 162.667 138.28 165.17 137.243C167.674 136.205 169.813 134.447 171.319 132.191C172.824 129.935 173.628 127.283 173.628 124.569C173.624 120.934 172.18 117.449 169.614 114.878C167.048 112.307 163.568 110.859 159.938 110.853Z" fill="#C9C9C9"/>
<path d="M159.938 143.333C155.355 143.335 150.931 141.653 147.504 138.604L150.851 134.823C153.35 137.063 156.584 138.304 159.938 138.31V143.333Z" fill="#E6E6E6"/>
<path d="M178.676 124.569H173.628C173.624 120.934 172.18 117.449 169.614 114.878C167.048 112.307 163.568 110.859 159.938 110.853V105.806C164.906 105.812 169.668 107.791 173.181 111.309C176.694 114.826 178.67 119.595 178.676 124.569Z" fill="white"/>
<path d="M159.938 143.333V138.31C163.567 138.303 167.045 136.857 169.611 134.288C172.177 131.718 173.622 128.235 173.628 124.601H178.676C178.659 129.57 176.679 134.329 173.167 137.839C169.656 141.349 164.9 143.325 159.938 143.333Z" fill="#FFD200"/>
<g opacity="0.08">
<path opacity="0.08" d="M160.352 118.495C160.678 118.495 160.781 118.615 160.781 118.941V119.658C161.368 119.713 161.927 119.931 162.398 120.287C162.868 120.642 163.23 121.122 163.444 121.672C163.619 122.014 163.547 122.205 163.158 122.38L162.442 122.699C162.117 122.858 161.957 122.786 161.767 122.436C161.619 122.075 161.359 121.771 161.026 121.57C160.692 121.369 160.302 121.282 159.914 121.321C158.682 121.321 158.118 121.68 158.118 122.508C158.118 123.041 158.611 123.375 159.119 123.479C159.462 123.556 159.81 123.609 160.161 123.638C160.817 123.668 161.465 123.794 162.085 124.012C162.394 124.116 162.683 124.275 162.935 124.482C163.197 124.748 163.402 125.064 163.538 125.412C163.675 125.759 163.74 126.131 163.73 126.504C163.73 128.096 162.673 129.155 160.805 129.433V130.23C160.805 130.564 160.701 130.675 160.375 130.675H159.58C159.255 130.675 159.135 130.564 159.135 130.23V129.489C158.487 129.444 157.867 129.209 157.352 128.812C156.838 128.416 156.451 127.876 156.241 127.26C156.21 127.195 156.193 127.124 156.193 127.051C156.194 126.979 156.211 126.908 156.243 126.843C156.275 126.778 156.322 126.722 156.38 126.678C156.437 126.635 156.504 126.605 156.575 126.591L157.283 126.329C157.649 126.201 157.808 126.289 157.967 126.647C158.112 127.037 158.382 127.367 158.734 127.588C159.086 127.808 159.501 127.906 159.914 127.865C161.25 127.865 161.91 127.443 161.91 126.591C161.922 126.394 161.868 126.197 161.755 126.034C161.643 125.871 161.479 125.75 161.29 125.692C160.828 125.531 160.347 125.437 159.859 125.413C159.195 125.374 158.541 125.235 157.919 124.999C157.63 124.885 157.361 124.723 157.124 124.522C156.862 124.266 156.656 123.958 156.519 123.618C156.382 123.278 156.317 122.914 156.329 122.547C156.329 120.955 157.315 119.944 159.167 119.697V118.981C159.167 118.655 159.286 118.535 159.612 118.535L160.352 118.495Z" fill="black"/>
</g>
<path d="M113.59 56.5525H78.3235V60.9707H113.59V56.5525Z" fill="#E6E6E6"/>
<path d="M111.491 64.9353H78.3235V69.3535H111.491V64.9353Z" fill="#E6E6E6"/>
<path d="M104.272 74.4723H78.3235V78.8905H104.272V74.4723Z" fill="#E6E6E6"/>
<path d="M242.515 165.321H220.811V169.739H242.515V165.321Z" fill="#E6E6E6"/>
<path d="M237.792 174.858H220.811V179.276H237.792V174.858Z" fill="#E6E6E6"/>
<path d="M258.12 81.7484H193.209V122.643H258.12V81.7484Z" fill="#E6E6E6"/>
<path opacity="0.46" d="M199.458 118.487V108.879L208.608 100.751L215.954 108.361L225.661 97.3595L233.571 108.178L251.864 91.7312V118.487H199.458Z" fill="white"/>
<path opacity="0.46" d="M217.814 85.896H199.458V88.3798H217.814V85.896Z" fill="white"/>
<path opacity="0.46" d="M215.143 91.7312H199.458V94.215H215.143V91.7312Z" fill="white"/>
</svg>
