<svg width="290" height="218" viewBox="0 0 290 218" fill="none" xmlns="http://www.w3.org/2000/svg">
<g opacity="0.9">
<path opacity="0.3" d="M55.4698 93.0917C55.4698 93.0917 20.2203 172.474 113.028 173.588C205.835 174.701 248.255 162.51 248.675 122.103C249.096 81.6956 215.673 44.0074 157.412 43.5807C99.1511 43.1541 67.6498 58.3827 55.4698 93.0917Z" fill="#E6E6E6"/>
<path d="M181.33 188.78V156.971L213.223 154.129L218.921 188.78H181.33Z" fill="#FFBD14"/>
<path d="M175.406 140.752L183.323 151.858V156.797L211.221 154.31L209.808 140.752C209.808 140.752 213.222 124.597 208.952 114.083C207.051 109.21 206.208 103.99 206.48 98.7681C206.69 93.9594 199.759 92.8531 198.505 97.5099C197.846 100.816 197.564 104.185 197.664 107.554C197.684 109.254 197.327 110.938 196.62 112.485C194.916 116.238 192.074 123.607 193.778 127.736L190.494 143.846L175.406 140.752Z" fill="#F4A28C"/>
<path opacity="0.09" d="M190.494 143.81L193.314 155.908L183.323 156.797V151.858L175.406 140.751L190.494 143.81Z" fill="black"/>
<path d="M86.0286 59.1781C86.0286 59.1781 79.5761 60.6243 78.6699 52.7424C77.7636 44.8606 78.6699 41.8959 78.6699 41.8959H93.8441C93.8441 41.8959 101.544 60.8774 86.0286 59.1781Z" fill="#FFBD14"/>
<path opacity="0.08" d="M86.0286 59.1781C86.0286 59.1781 79.5761 60.6243 78.6699 52.7424C77.7636 44.8606 78.6699 41.8959 78.6699 41.8959H93.8441C93.8441 41.8959 101.544 60.8774 86.0286 59.1781Z" fill="black"/>
<path d="M97.4111 32.539C97.4111 32.539 92.1476 32.4088 90.9586 39.864C89.7696 47.3192 92.6551 57.6524 86.0286 59.1781H104.538C104.538 59.1781 115.928 33.0018 97.4111 32.539Z" fill="white"/>
<path d="M108.967 32.5389H97.4109C99.3705 33.4505 101.058 34.8554 102.308 36.6153C103.557 38.3752 104.326 40.4294 104.538 42.5756V141.091C104.538 144.242 105.793 147.264 108.027 149.492C110.26 151.72 113.29 152.972 116.449 152.972H186.47C188.034 152.972 189.582 152.665 191.027 152.068C192.472 151.47 193.785 150.595 194.89 149.492C195.996 148.389 196.872 147.079 197.47 145.637C198.068 144.196 198.375 142.651 198.374 141.091V45.6416C198.374 43.9222 198.035 42.2197 197.375 40.6313C196.715 39.0429 195.748 37.5997 194.528 36.3843C193.309 35.1688 191.862 34.2049 190.269 33.5476C188.676 32.8903 186.969 32.5525 185.245 32.5534L108.967 32.5389Z" fill="#FFBD14"/>
<path opacity="0.08" d="M153.613 76.2723C153.613 76.2723 165.213 95.7962 149.923 110.815C134.633 125.834 115.63 119.926 115.63 119.926L106.053 144.251L99.0786 135.675L106.807 115.002L112.158 103.801L133.908 94.5307L153.613 76.2723Z" fill="black"/>
<path opacity="0.35" d="M133.929 52.5038H176.291C178.004 52.5038 179.647 53.1826 180.859 54.3909C182.07 55.5991 182.751 57.2379 182.751 58.9466V105.442C182.751 107.151 182.07 108.79 180.859 109.998C179.647 111.206 178.004 111.885 176.291 111.885H133.929V52.5038Z" fill="white"/>
<path d="M113.238 106.785L105.457 102.235L96.7859 116.988L104.566 121.538L113.238 106.785Z" fill="white"/>
<path opacity="0.29" d="M113.238 106.785L105.457 102.235L96.7859 116.988L104.566 121.538L113.238 106.785Z" fill="white"/>
<path d="M122.757 112.948C140.063 112.948 154.092 98.9559 154.092 81.6956C154.092 64.4352 140.063 50.443 122.757 50.443C105.452 50.443 91.4226 64.4352 91.4226 81.6956C91.4226 98.9559 105.452 112.948 122.757 112.948Z" fill="#FFD200"/>
<path d="M122.757 103.794C134.994 103.794 144.913 93.9 144.913 81.6956C144.913 69.4912 134.994 59.5975 122.757 59.5975C110.521 59.5975 100.601 69.4912 100.601 81.6956C100.601 93.9 110.521 103.794 122.757 103.794Z" fill="white"/>
<path d="M106.013 118.796L98.3948 114.342C96.6297 113.31 94.3599 113.901 93.3251 115.661L78.8019 140.371C77.7671 142.131 78.3592 144.395 80.1243 145.427L87.7423 149.881C89.5074 150.913 91.7772 150.323 92.812 148.562L107.335 123.853C108.37 122.092 107.778 119.828 106.013 118.796Z" fill="white"/>
<path d="M75.0302 138.9C75.2968 135.52 76.3012 132.238 77.9731 129.285C79.645 126.332 81.944 123.78 84.709 121.806C88.3762 119.148 92.905 117.949 97.411 118.444C111.679 120.035 108.721 141.467 101.761 153.652C94.801 165.836 84.5567 167.427 78.3 161.063C74.211 156.913 74.3922 146.081 75.0302 138.9Z" fill="#F4A28C"/>
<path d="M71.9272 151.186L66.0039 188.78H100.594L101.79 156.602L71.9272 151.186Z" fill="#FFBD14"/>
<path d="M121.72 91.284C121.448 91.2852 121.18 91.2246 120.935 91.1068C120.69 90.9891 120.475 90.8172 120.306 90.6043L114.209 83.0044C114.061 82.8188 113.95 82.6058 113.884 82.3776C113.818 82.1494 113.798 81.9105 113.825 81.6744C113.851 81.4384 113.924 81.2099 114.039 81.002C114.154 80.7941 114.309 80.6109 114.496 80.4627C114.682 80.3146 114.895 80.2045 115.124 80.1387C115.353 80.0728 115.592 80.0526 115.829 80.0791C116.066 80.1057 116.295 80.1784 116.503 80.2932C116.712 80.4081 116.895 80.5627 117.044 80.7484L121.532 86.3452L128.376 75.3251C128.497 75.1159 128.66 74.9332 128.853 74.7878C129.047 74.6423 129.268 74.5371 129.503 74.4783C129.738 74.4195 129.983 74.4084 130.222 74.4455C130.462 74.4827 130.691 74.5674 130.897 74.6946C131.104 74.8218 131.282 74.989 131.422 75.1862C131.562 75.3834 131.662 75.6067 131.714 75.8428C131.766 76.0789 131.77 76.323 131.726 76.5608C131.682 76.7985 131.59 77.025 131.457 77.2268L123.25 90.4307C123.095 90.6785 122.882 90.8854 122.629 91.0339C122.377 91.1824 122.093 91.2682 121.8 91.284H121.72Z" fill="white"/>
<path d="M182.751 123.614H122.757V138.879H182.751V123.614Z" fill="white"/>
<path d="M214.687 24.6571H162.857V60.9642H214.687V24.6571Z" fill="white"/>
<path d="M182.41 45.8657H174.986V50.7756H182.41V45.8657Z" fill="#FFD200"/>
<path d="M192.995 40.7968H185.571V50.7756H192.995V40.7968Z" fill="#FFD200"/>
<path d="M203.355 34.2527H195.931V50.7829H203.355V34.2527Z" fill="#FFD200"/>
<path d="M206.234 50.5153H172.789V52.6484H206.234V50.5153Z" fill="white"/>
</g>
</svg>
