<svg width="296" height="224" viewBox="0 0 296 224" fill="none" xmlns="http://www.w3.org/2000/svg">
<path opacity="0.45" d="M153.587 199.281C220.89 199.281 275.45 195.495 275.45 190.826C275.45 186.156 220.89 182.37 153.587 182.37C86.2839 182.37 31.7239 186.156 31.7239 190.826C31.7239 195.495 86.2839 199.281 153.587 199.281Z" fill="#E6E6E6"/>
<path d="M82.7911 134.231L76.2199 155.273C75.3351 158.11 73.876 160.734 71.9341 162.979C69.9922 165.224 67.6094 167.043 64.9349 168.32L55.3149 172.919L55.6997 175.772L70.1001 172.652C73.478 171.647 76.6104 169.947 79.2975 167.66C81.9846 165.373 84.1674 162.548 85.7067 159.367L95.8743 138.347L82.7911 134.231Z" fill="#F4A28C"/>
<path opacity="0.19" d="M222.163 182.34C222.163 182.34 215.555 180.527 214.119 174.353C214.119 174.353 224.353 172.28 224.649 182.89L222.163 182.34Z" fill="#FFBD14"/>
<path opacity="0.51" d="M222.977 181.687C222.977 181.687 218.359 174.361 222.422 167.51C222.422 167.51 230.207 172.473 226.743 181.701L222.977 181.687Z" fill="#FFBD14"/>
<path d="M224.161 181.687C224.161 181.687 226.603 173.952 233.973 172.488C233.973 172.488 235.357 177.511 229.2 181.709L224.161 181.687Z" fill="#FFBD14"/>
<path d="M219.373 181.516L220.712 190.714L229.148 190.751L230.392 181.56L219.373 181.516Z" fill="white"/>
<path d="M207.94 69.6635H135.368V190.87H207.94V69.6635Z" fill="white"/>
<path d="M201.694 22.1964L130.084 34.0221L134.612 61.6621L206.222 49.8364L201.694 22.1964Z" fill="white"/>
<path d="M186.444 17.1059L143.704 24.0414L144.994 32.0518L187.734 25.1163L186.444 17.1059Z" fill="#FFBD14"/>
<path opacity="0.07" d="M194.946 105.766H148.229C144.433 105.766 141.355 108.857 141.355 112.669V118.249C141.355 122.061 144.433 125.151 148.229 125.151H194.946C198.742 125.151 201.82 122.061 201.82 118.249V112.669C201.82 108.857 198.742 105.766 194.946 105.766Z" fill="#FFF385"/>
<path d="M190.794 120.671C193.647 120.671 195.959 118.349 195.959 115.485C195.959 112.621 193.647 110.299 190.794 110.299C187.941 110.299 185.629 112.621 185.629 115.485C185.629 118.349 187.941 120.671 190.794 120.671Z" fill="#FFBD14"/>
<path d="M177.985 113.018H147.549V117.944H177.985V113.018Z" fill="#FFF385"/>
<path opacity="0.07" d="M194.946 77.532H148.229C144.433 77.532 141.355 80.6224 141.355 84.4345V90.0145C141.355 93.8267 144.433 96.917 148.229 96.917H194.946C198.742 96.917 201.82 93.8267 201.82 90.0145V84.4345C201.82 80.6224 198.742 77.532 194.946 77.532Z" fill="#FFF385"/>
<path d="M190.794 92.4367C193.647 92.4367 195.959 90.1148 195.959 87.2505C195.959 84.3863 193.647 82.0643 190.794 82.0643C187.941 82.0643 185.629 84.3863 185.629 87.2505C185.629 90.1148 187.941 92.4367 190.794 92.4367Z" fill="#FFBD14"/>
<path d="M177.985 84.7837H147.549V89.7098H177.985V84.7837Z" fill="#FFF385"/>
<path opacity="0.07" d="M190.115 29.1185L143.866 36.6235C140.107 37.2334 137.552 40.7874 138.16 44.5614L139.049 50.0856C139.656 53.8596 143.196 56.4246 146.955 55.8147L193.204 48.3097C196.963 47.6998 199.517 44.1459 198.91 40.3718L198.02 34.8476C197.413 31.0736 193.873 28.5086 190.115 29.1185Z" fill="#FFF385"/>
<path d="M187.042 44.0297C189.895 44.0297 192.208 41.7078 192.208 38.8435C192.208 35.9793 189.895 33.6573 187.042 33.6573C184.19 33.6573 181.877 35.9793 181.877 38.8435C181.877 41.7078 184.19 44.0297 187.042 44.0297Z" fill="#FFBD14"/>
<path d="M174 38.4915L143.968 43.4512L144.764 48.312L174.797 43.3524L174 38.4915Z" fill="#FFF385"/>
<path opacity="0.07" d="M194.946 135.226H148.229C144.433 135.226 141.355 138.317 141.355 142.129V147.709C141.355 151.521 144.433 154.611 148.229 154.611H194.946C198.742 154.611 201.82 151.521 201.82 147.709V142.129C201.82 138.317 198.742 135.226 194.946 135.226Z" fill="#FFF385"/>
<path d="M190.794 150.131C193.647 150.131 195.959 147.809 195.959 144.945C195.959 142.081 193.647 139.759 190.794 139.759C187.941 139.759 185.629 142.081 185.629 144.945C185.629 147.809 187.941 150.131 190.794 150.131Z" fill="#FFBD14"/>
<path d="M177.985 142.478H147.549V147.404H177.985V142.478Z" fill="#FFF385"/>
<path opacity="0.07" d="M194.946 164.687H148.229C144.433 164.687 141.355 167.777 141.355 171.589V177.169C141.355 180.981 144.433 184.072 148.229 184.072H194.946C198.742 184.072 201.82 180.981 201.82 177.169V171.589C201.82 167.777 198.742 164.687 194.946 164.687Z" fill="#FFF385"/>
<path d="M190.794 179.591C193.647 179.591 195.959 177.269 195.959 174.405C195.959 171.541 193.647 169.219 190.794 169.219C187.941 169.219 185.629 171.541 185.629 174.405C185.629 177.269 187.941 179.591 190.794 179.591Z" fill="#FFBD14"/>
<path d="M177.985 171.938H147.549V176.864H177.985V171.938Z" fill="#FFF385"/>
<path d="M104.503 140.167L107.581 185.231L104.717 186.226L93.3213 144.068L104.503 140.167Z" fill="#F4A28C"/>
<path d="M108.166 186.003C108.166 186.003 108.787 188.671 110.793 189.503C112.798 190.335 111.784 193.218 108.765 191.472C107.827 190.924 106.936 190.297 106.101 189.6C105.317 188.983 104.386 188.584 103.4 188.44C103.216 188.407 103.047 188.318 102.914 188.185C102.782 188.052 102.693 187.882 102.66 187.697C102.253 186.211 105.583 184.829 105.583 184.829L108.166 186.003Z" fill="#FFBD14"/>
<path d="M55.6923 175.772C55.6923 175.772 53.6647 177.333 53.7239 179.368C53.7831 181.404 50.9267 181.649 51.2745 178.388C51.379 177.383 51.5671 176.389 51.8369 175.416C52.064 174.508 52.0461 173.557 51.7851 172.659C51.7487 172.483 51.7659 172.301 51.8346 172.135C51.9032 171.969 52.0201 171.828 52.1699 171.73C53.2725 170.824 55.7367 173.142 55.7367 173.142L55.6923 175.772Z" fill="#FFBD14"/>
<path d="M87.3274 74.8496L88.393 79.1814L84.8928 81.0389L84.2786 73.6237L87.3274 74.8496Z" fill="#F4A28C"/>
<path d="M83.4573 69.4481C83.6638 69.0601 83.9634 68.73 84.3289 68.4877C84.6945 68.2453 85.1145 68.0982 85.5509 68.0599C85.9873 68.0215 86.4264 68.093 86.8283 68.268C87.2302 68.4429 87.5824 68.7157 87.8529 69.0617C89.1479 70.6963 90.6649 73.2522 88.5929 74.4113C85.4775 76.1871 83.0577 72.1823 83.0577 72.1823C82.9245 71.2513 83.0633 70.3014 83.4573 69.4481Z" fill="#F4A28C"/>
<path d="M47.6743 96.8135L63.2905 116.904L77.4255 105.828L61.8093 85.7372L47.6743 96.8135Z" fill="#FFD200"/>
<path d="M69.0865 88.4392C69.0865 88.4392 54.0201 112.097 57.0319 115.581C66.6075 126.637 87.8677 101.732 87.8677 101.732L69.0865 88.4392Z" fill="#F4A28C"/>
<path d="M103.171 84.91C98.8469 81.7397 93.654 79.9863 88.3008 79.8893C82.9477 79.7922 77.6951 81.3561 73.26 84.3676C69.3158 87.0647 66.2744 91.0547 67.6656 96.9244C70.929 110.596 81.363 119.608 81.7256 131.638L106.427 129.973V114.489C106.42 113.025 106.716 111.575 107.296 110.231C107.875 108.887 108.726 107.678 109.794 106.68C111.947 104.689 114.086 101.442 112.621 96.9764C111.289 93.0162 107.922 88.4095 103.171 84.91Z" fill="#FFBD14"/>
<path d="M85.4183 72.212C85.4183 72.212 84.6782 71.5136 84.2934 72.3903C83.9086 73.2671 85.1814 73.8095 85.6181 73.3859C86.0547 72.9624 85.4183 72.212 85.4183 72.212Z" fill="#F4A28C"/>
<path opacity="0.08" d="M90.946 91.3518C90.946 91.3518 85.6106 101.598 91.8044 111.584C97.9982 121.57 86.2544 131.333 86.2544 131.333L106.397 129.973V121.146C106.397 121.146 105.154 110.001 108.995 107.468C108.995 107.468 115.566 102.712 112.029 95.5127C108.491 88.3129 90.946 91.3518 90.946 91.3518Z" fill="black"/>
<path d="M80.66 85.2518C81.1336 83.4017 83.3314 80.0508 80.2308 73.9655C79.5796 72.6801 79.0616 69.671 80.2974 67.5905C83.2574 62.605 87.9786 64.3065 87.4162 67.1002C86.8538 69.8939 86.4616 71.2238 86.4616 71.2238C86.4616 71.2238 95.4304 77.6806 94.1206 82.4432C92.9588 86.6412 78.662 92.9345 80.66 85.2518Z" fill="white"/>
<path d="M80.6081 125.307H106.397L110.504 161.135L72.2461 159.404L80.6081 125.307Z" fill="white"/>
<path d="M91.9673 98.6259C91.3579 97.882 90.9017 97.024 90.6252 96.1018C90.3486 95.1795 90.2573 94.2112 90.3564 93.2532C90.4555 92.2952 90.7432 91.3665 91.2026 90.521C91.6621 89.6754 92.2842 88.93 93.0329 88.3278C94.5244 87.1584 96.1027 86.1052 97.7541 85.1774C107.589 79.5232 123.935 67.0258 130.817 49.788C130.817 49.788 132.43 43.4873 137.218 43.7102C142.006 43.9331 140.356 49.9069 135.59 49.8475C135.59 49.8475 131.69 87.2504 103.075 101.167C101.208 102.052 99.0999 102.283 97.0874 101.822C95.0749 101.361 93.2746 100.236 91.9747 98.6259H91.9673Z" fill="#F4A28C"/>
<path d="M74 36.2059V49.855H82.7838L84.7078 55.2863L86.9796 49.855H95.7634V36.2059H74Z" fill="#E6E6E6"/>
<path opacity="0.12" d="M83.7828 46.0805C83.6846 46.0755 83.5886 46.049 83.5017 46.0028C83.4147 45.9566 83.3389 45.8918 83.2796 45.813L80.9782 42.841C80.8763 42.6975 80.8336 42.52 80.8589 42.3457C80.8843 42.1713 80.9757 42.0134 81.1141 41.9051C81.2526 41.7968 81.4273 41.7463 81.6019 41.7643C81.7765 41.7822 81.9375 41.8672 82.0512 42.0014L83.8568 44.3345L88.2968 39.5049C88.3572 39.4377 88.4303 39.3831 88.5118 39.3445C88.5933 39.3058 88.6817 39.2838 88.7718 39.2797C88.8618 39.2757 88.9518 39.2896 89.0365 39.3207C89.1212 39.3518 89.1988 39.3995 89.265 39.461C89.3312 39.5226 89.3845 39.5966 89.4219 39.679C89.4593 39.7614 89.4801 39.8504 89.4829 39.9409C89.4858 40.0314 89.4707 40.1215 89.4386 40.2061C89.4065 40.2907 89.3579 40.3681 89.2958 40.4337L84.286 45.8725C84.2206 45.9397 84.1423 45.9928 84.0558 46.0286C83.9692 46.0643 83.8764 46.082 83.7828 46.0805Z" fill="black"/>
</svg>
